<?xml version="1.0" standalone="no"?><!DOCTYPE svg PUBLIC "-//W3C//DTD SVG 1.1//EN" "http://www.w3.org/Graphics/SVG/1.1/DTD/svg11.dtd"><svg t="1510236365427" class="icon" style="" viewBox="0 0 1024 1024" version="1.1" xmlns="http://www.w3.org/2000/svg" p-id="19261" xmlns:xlink="http://www.w3.org/1999/xlink" width="200" height="200"><defs><style type="text/css"></style></defs><path d="M883.648 116.126H140.473c-75.07 0-135.912 59.662-135.912 133.245v509.848c0 73.582 60.843 133.23 135.912 133.23h743.175c75.07 0 135.912-59.648 135.912-133.23V249.371c0-73.583-60.842-133.245-135.912-133.245z m79.501 643.093c0 42.972-35.654 77.955-79.501 77.955H140.473c-43.847 0-79.501-34.984-79.501-77.955V249.371c0-3.513 0.583-6.851 1.05-10.232L514.16 587.011l383.337-299.289-35.13-43.249-348.47 272.058L89.541 190.015c13.819-11.428 31.456-18.6 50.93-18.6h743.175c43.847 0 79.501 34.969 79.501 77.955v509.849h0.002z" p-id="19262"></path></svg>